<svg xmlns="http://www.w3.org/2000/svg" viewBox="0 0 1265.5 297" enable-background="new 0 0 1265.5 297"><style type="text/css">.st0{fill:#95b3d1}.st1{fill:#fff}</style><g class="st1"><path d="M324.9 149.2l3-.6c-1.1.1-2.1.3-3 .6zM328 148.5h-.2.2zM325.9 151.9l2.8-.6c-1.8.2-3.6.6-5.1 1.3l2.3-.7z"/></g><path class="st0" d="M419.4 163c-7 25.9-28.9 41.7-57.6 41.7-35.2 0-59.5-25.2-59.5-61.3 0-36.9 23.5-61.4 59.2-61.4 15.1 0 28.9 4.6 39.2 12.8v-10.9h15.4v38.1h-15.4c-6.8-15.1-21.5-24.3-38.3-24.3-23.6 0-40.4 18.9-40.4 45.2 0 25.9 17.7 45.7 41.1 45.7 16.1 0 34.8-10.7 40.8-34.1l15.5 8.5zM443.1 134.5h-13.1v-14.4h29.6v68.3h13.1v14.4h-42.7v-14.4h13.1v-53.9zm17.7-42.6c0 5.4-4.4 9.8-9.8 9.8s-9.8-4.4-9.8-9.8 4.4-9.8 9.8-9.8 9.8 4.4 9.8 9.8zM485.4 134.5h-14.5v-14.4h41.7v14.4h-10.9l17.9 46.9 17.9-46.9h-11.6v-14.4h40.6v14.4h-12.8l-26.6 69.7h-14.5l-27.2-69.7zM581.4 134.5h-13.1v-14.4h29.6v68.3h13.1v14.4h-42.7v-14.4h13.1v-53.9zm17.7-42.6c0 5.4-4.4 9.8-9.8 9.8s-9.8-4.4-9.8-9.8 4.4-9.8 9.8-9.8 9.8 4.4 9.8 9.8zM697.8 151.3h-14.7c-.9-5.8-3.3-10.5-7.2-13.8-3.7-3.2-8.8-4.9-14.7-4.9-14.7 0-24.5 11.4-24.5 28 0 17.7 10.3 29.8 25.2 29.8 11 0 20-5.8 24.9-16.3l13.5 6.3c-7.2 16.3-20.8 24.9-38.9 24.9-28.7 0-42.2-23.5-42.2-44.5 0-23.8 18-43.1 40.6-43.1 8.9 0 17.2 2.8 23.3 8.1v-5.6h14.7v31.1z"/><path class="st1" d="M708.1 159.7h14.7v10.5c7.5 12.8 16.3 19.6 27.7 19.6 12.1 0 21-8.6 21-20 0-23.3-37.3-15.2-55.8-33.8-4.6-4.6-7.9-11.6-7.9-21.5 0-22.1 16.8-32.6 34.7-32.6 9.5 0 18.6 3.2 26.6 9.3v-7.9h14.7v35.9h-14.8v-8.2c-6.5-9.5-14.4-13.8-25.2-13.8-12.1 0-20 6.1-20 15.2 0 4 1.6 7.7 4 10.2 9.3 9.3 37.8 7.7 51.6 21.5 6.3 6.3 10.2 15.9 10.2 25.6 0 20.1-16.1 35-37.6 35-10.9 0-20.7-3.9-29.2-11.7v9.8h-14.7v-43.1zM843.3 117.7c24.9 0 43.4 18.7 43.4 43.8 0 25-18.7 43.8-43.6 43.8-24.9 0-43.4-18.7-43.4-43.8 0-25.1 18.5-43.8 43.6-43.8zm-.2 71.7c14.9 0 26.1-11.9 26.1-28 0-15.9-11.2-28-26.1-28-14.7 0-25.9 12.1-25.9 28 0 16.1 11.2 28 25.9 28zM988 202.8h-30.6v-9.5c-9.3 7.2-18.4 10.9-27 10.9-15.1 0-22.9-8.2-22.9-25.6v-44.1h-11.7v-14.4h28.2v57.6c0 8.4 3.5 12.1 9.8 12.1 6.8 0 16.3-4 23.6-10.5v-44.8h-14.2v-14.4h30.6v68.3h14.2v14.4zM1008.2 134.5h-16.6v-14.4h29.6v18.6h.4c5.3-13.8 15.8-20 26.1-20h10.7v16.5h-8.8c-19.1 0-24.9 10.7-24.9 29.6v23.6h17.9v14.4h-50.6v-14.4h16.3v-53.9zM1136.3 151.3h-14.7c-.9-5.8-3.3-10.5-7.2-13.8-3.7-3.2-8.8-4.9-14.7-4.9-14.7 0-24.5 11.4-24.5 28 0 17.7 10.3 29.8 25.2 29.8 11 0 20-5.8 24.9-16.3l13.5 6.3c-7.2 16.3-20.8 24.9-38.9 24.9-28.7 0-42.2-23.5-42.2-44.5 0-23.8 18-43.1 40.6-43.1 8.9 0 17.2 2.8 23.3 8.1v-5.6h14.7v31.1zM1165 165.5c2.5 16.1 13 25.4 28.4 25.4 10.7 0 20.7-4.7 26.8-13.5l14.4 6.3c-8.9 13.8-23.8 21.5-41.5 21.5-26.8 0-46-18.2-46-43.8 0-26.8 21.9-43.8 43.4-43.8 22.9 0 44.1 17.5 44.1 47.8h-69.6zm52.9-11.9c-2.6-13.1-14.2-22.8-27.1-22.8-13 0-22.8 8.9-25.2 22.8h52.3z"/><g class="st0"><path d="M352 524.4l2.8-.6c-1 .1-1.9.3-2.8.6zM355 523.7h-.2c.1.1.1.1.2 0zM353 526.9l2.6-.5c-1.7.2-3.3.6-4.8 1.2l2.2-.7z"/></g><path class="st1" d="M1253.3 81.9c0 8.4-6.7 15-15.3 15-8.6 0-15.4-6.7-15.4-15 0-8.4 6.8-15 15.5-15 8.4.1 15.2 6.6 15.2 15zm-26.9 0c0 6.7 5 11.9 11.7 11.9 6.5.1 11.4-5.3 11.4-11.9 0-6.7-4.9-12-11.6-12-6.5.1-11.5 5.4-11.5 12zm9.2 7.8h-3.5v-15c1.4-.2 3.3-.5 5.7-.5 2.8 0 4.1.5 5.1 1.2.9.6 1.5 1.7 1.5 3.2 0 1.8-1.4 3-3.1 3.6v.2c1.5.5 2.2 1.6 2.6 3.6.5 2.3.8 3.1 1.1 3.6h-3.6c-.5-.5-.7-1.8-1.2-3.6-.3-1.5-1.2-2.3-3.1-2.3h-1.6v6zm.1-8.4h1.6c1.9 0 3.5-.6 3.5-2.2 0-1.4-1-2.3-3.2-2.3-.9 0-1.5.1-1.9.2v4.3z"/><g class="st1"><path d="M186 190.1h-120.69999999999999c-3.9 0-7.1 2.2-7.1 4.9s3.2 4.9 7.1 4.9h120.69999999999999c3.9 0 7.2-2.2 7.2-4.9s-3.2-4.9-7.2-4.9zM125.6 25.7c-66 0-119.6 53.6-119.6 119.6 0 48.2 28.6 89.8 69.7 108.7 0 0 .7.3 1.1.5 3.5 1.3 7.4-.4 8.8-3.9 1.3-3.5-.4-7.4-3.9-8.8-36.6-16.7-62-53.6-62-96.5 0-58.6 47.5-106.1 106.1-106.1 58.6 0 106.1 47.5 106.1 106.1 0 44.9-27.9 83.2-67.2 98.8-12 4.7-40.4 7.6-32.9-40.7h-11.8c-9.2 62 36.3 58.6 50 53.1 44.1-17.6 75.2-60.7 75.2-111.1.1-66.1-53.5-119.7-119.6-119.7zM178.1 175.5h-104.9c-3.4 0-6.2 2.2-6.2 4.9s2.8 4.9 6.2 4.9h104.9c3.4 0 6.2-2.2 6.2-4.9s-2.8-4.9-6.2-4.9zM186.3 142.1l-50.6-18.7-50.6-18.7c-3.3-1.2-7 .4-8.1 3.6-1.2 3.2.5 6.8 3.8 8l50.6 18.8 50.6 18.7c3.3 1.2 7-.4 8.1-3.6 1.2-3.3-.5-6.9-3.8-8.1zM135.3 94.5l-16.4-6.5-16.4-6.5c-1.1-.4-2.8 1.4-3.8 4.1-1 2.7-1 5.2 0 5.6l16.4 6.5 16.4 6.5c1.1.4 2.8-1.4 3.8-4 1.1-2.8 1.1-5.3 0-5.7zM114.5 145.9l-16.4-6.4-16.4-6.5c-1.1-.4-2.8 1.4-3.8 4.1-1.1 2.7-1 5.1 0 5.6l16.4 6.5 16.4 6.4c1.1.4 2.8-1.4 3.8-4 1.1-2.8 1.1-5.3 0-5.7zM130.3 105.7l-16.4-6.4-16.4-6.4c-1.1-.4-5.3 7.8-9.5 18.5-4.2 10.6-6.7 19.6-5.6 20l16.4 6.4 16.4 6.4c1.1.4 5.3-7.9 9.5-18.5 4.1-10.6 6.6-19.6 5.6-20z"/></g></svg>