<?xml version="1.0" encoding="UTF-8" standalone="no"?>
<svg width="680px" height="245px" viewBox="0 0 680 245" version="1.1" xmlns="http://www.w3.org/2000/svg" xmlns:xlink="http://www.w3.org/1999/xlink" xmlns:sketch="http://www.bohemiancoding.com/sketch/ns">
    <!-- Generator: Sketch 3.4 (15575) - http://www.bohemiancoding.com/sketch -->
    <title>pixelsquid-logo-white</title>
    <desc>Created with Sketch.</desc>
    <defs>
        <path id="path-1" d="M0.06,0.646 L679.568,0.646 L679.568,244.94 L0.06,244.94 L0.06,0.646 Z"></path>
        <path id="path-3" d="M0.06,0.646 L679.568,0.646 L679.568,244.94 L0.06,244.94 L0.06,0.646 Z"></path>
    </defs>
    <g id="Page-1" stroke="none" stroke-width="1" fill="none" fill-rule="evenodd" sketch:type="MSPage">
        <g id="pixelsquid-logo-white" sketch:type="MSLayerGroup">
            <g id="Group-3">
                <mask id="mask-2" sketch:name="Clip 2" fill="white">
                    <use xlink:href="#path-1"></use>
                </mask>
                <g id="Clip-2"></g>
                <path d="M63,49.336 C63,62.476 55.745,67.708 40.625,67.708 L10,67.708 L10,12.708 L40.625,12.708 C55.745,12.708 63,17.477 63,30.617 L63,49.336 L63,49.336 Z M40.445,2.708 L0,2.708 L0,122.709 L10,122.709 L10,76.708 L40.445,76.708 C64.564,76.708 73,66.075 73,49.336 L73,30.617 C73,13.877 64.564,2.708 40.445,2.708 L40.445,2.708 Z" id="Fill-1" fill="#FFFFFF" sketch:type="MSShapeGroup" mask="url(#mask-2)"></path>
            </g>
            <path d="M84,34.708 L95,34.708 L95,122.709 L84,122.709 L84,34.708 Z" id="Fill-4" fill="#FFFFFF" sketch:type="MSShapeGroup"></path>
            <path d="M84,2.708 L95,2.708 L95,13.708 L84,13.708 L84,2.708 Z" id="Fill-5" fill="#FFFFFF" sketch:type="MSShapeGroup"></path>
            <path d="M172.257,34.708 L161.097,34.708 L137.518,69.807 L114.119,34.708 L102.959,34.708 L131.938,78.438 L102.419,122.709 L113.759,122.709 L137.518,86.89 L161.457,122.709 L172.797,122.709 L143.098,78.438 L172.257,34.708" id="Fill-6" fill="#FFFFFF" sketch:type="MSShapeGroup"></path>
            <path d="M228,72.708 L184,72.708 L184,64.815 C184,50.056 189.98,42.316 206.36,42.316 C222.739,42.316 228,50.056 228,64.815 L228,72.708 L228,72.708 Z M206.45,33.316 C181.791,33.316 174,47.176 174,65.175 L174,92.714 C174,111.793 181.768,124.573 206.427,124.573 C217.047,124.573 228.491,122.593 236.591,119.712 L234.753,111.253 C226.114,113.593 215.946,115.393 206.947,115.393 C189.487,115.393 184,108.734 184,93.074 L184,81.708 L238,81.708 L238,65.175 C238,47.176 231.108,33.316 206.45,33.316 L206.45,33.316 Z" id="Fill-7" fill="#FFFFFF" sketch:type="MSShapeGroup"></path>
            <path d="M249,122.709 L259,122.709 L259,3.108 L249,3.298 L249,122.709" id="Fill-8" fill="#FFFFFF" sketch:type="MSShapeGroup"></path>
            <path d="M317.094,53.454 C296.394,48.414 296.035,48.054 296.035,34.374 C296.035,23.935 298.734,20.695 314.033,20.695 C324.473,20.695 336.174,22.135 346.072,24.295 L348.592,5.215 C336.713,2.516 324.113,1.256 313.674,1.256 C283.255,1.256 273.355,12.055 273.355,33.834 C273.355,59.213 277.315,64.793 306.295,71.273 C327.893,75.953 328.254,77.033 328.254,90.352 C328.254,101.872 325.553,105.292 309.174,105.292 C297.294,105.292 286.495,103.131 275.335,99.711 L271.375,117.531 C279.295,121.31 295.134,124.73 308.814,124.73 C344.273,124.73 350.932,113.031 350.932,90.352 C350.932,66.413 349.313,61.193 317.094,53.454" id="Fill-9" fill="#FFFFFF" sketch:type="MSShapeGroup"></path>
            <path d="M463.615,124.73 C473.875,124.73 487.642,120.839 498.62,115.439 L498.687,122.709 L517,122.709 L517,35.708 L495,35.708 L495,96.112 C488,100.251 477.98,103.492 472.582,103.492 C467.541,103.492 466,101.152 466,96.472 L466,35.708 L444,35.708 L444,98.812 C444,114.471 449.035,124.73 463.615,124.73" id="Fill-10" fill="#FFFFFF" sketch:type="MSShapeGroup"></path>
            <path d="M528,0.708 L550,0.708 L550,22.708 L528,22.708 L528,0.708 Z" id="Fill-11" fill="#FFFFFF" sketch:type="MSShapeGroup"></path>
            <path d="M528,35.708 L550,35.708 L550,122.709 L528,122.709 L528,35.708 Z" id="Fill-12" fill="#FFFFFF" sketch:type="MSShapeGroup"></path>
            <g id="Group-16">
                <mask id="mask-4" sketch:name="Clip 14" fill="white">
                    <use xlink:href="#path-3"></use>
                </mask>
                <g id="Clip-14"></g>
                <path d="M580,63.893 C580,55.974 582.851,52.193 590.771,52.193 C597.069,52.193 605,53.273 610,54.533 L610,98.091 C606,102.412 597.79,106.011 590.591,106.011 C582.489,106.011 580,102.052 580,94.852 L580,63.893 L580,63.893 Z M584.991,124.73 C595.97,124.73 604.965,121.019 612.705,115.439 L612.859,122.709 L632,122.709 L632,0.646 L610,0.706 L610,35.994 C604,34.554 594.529,33.474 586.789,33.474 C566.451,33.474 558,44.994 558,64.433 L558,94.312 C558,114.291 567.351,124.73 584.991,124.73 L584.991,124.73 Z" id="Fill-13" fill="#FFFFFF" sketch:type="MSShapeGroup" mask="url(#mask-4)"></path>
                <path d="M414,101.894 C409,104.474 400.621,107.058 394.35,107.058 C386.053,107.058 383,103.181 383,95.992 L383,68.329 C383,57.813 385.867,51.915 400.621,51.915 C405.416,51.915 410,52.097 414,52.651 L414,101.894 L414,101.894 Z M668.59,161.275 C652.75,139.496 631.201,132.812 602.738,139.742 C577.541,145.878 562.117,155.582 539.098,167.464 C516.752,178.996 494.209,188.46 476.17,189.492 C463.176,190.234 452.933,189.367 444.394,180.828 C435.608,172.041 437,167.214 437,152.365 L437,114.744 L437,35.87 C426,33.656 410.764,32.732 401.727,32.732 C367.057,32.732 360,47.305 360,69.063 L360,95.435 C360,114.433 367.912,126.234 387.275,126.234 C397.051,126.234 407,123.654 414,120.888 L414,127.992 C411,127.986 407.028,127.984 406.595,127.984 C405.915,127.984 404.73,128.291 404.43,128.834 C403.863,129.837 403.138,131.613 403.134,133.564 C403.13,135.128 403.378,137.158 403.905,138.273 C404.227,138.943 405.888,139.857 406.503,139.855 C406.876,139.857 411,139.865 414,139.871 L414,147.265 C412,147.416 407.269,147.552 406.839,147.576 C406.161,147.611 405.068,147.947 404.795,148.503 C404.287,149.539 403.69,151.296 403.788,153.242 C403.868,154.806 404.241,156.773 404.825,157.859 C405.181,158.509 405.746,159.39 406.361,159.359 C406.701,159.341 409.108,159.216 411.944,159.072 C412.11,161.832 412.352,164.419 412.708,166.847 C409.942,167.468 407.533,168.007 407.129,168.099 C406.467,168.25 406.004,168.667 405.828,169.261 C405.5,170.367 405.486,172.115 405.912,174.017 C406.254,175.544 407.084,177.363 407.848,178.332 C408.307,178.917 409.082,179.675 409.685,179.541 C410.025,179.462 412.519,178.904 415.379,178.263 C416.273,180.869 417.318,183.236 418.5,185.406 C416.203,186.974 414.225,188.326 413.889,188.558 C413.328,188.943 413.064,189.498 413.119,190.113 C413.225,191.263 413.834,192.863 414.934,194.474 C415.814,195.765 417.238,197.117 418.305,197.736 C418.949,198.109 419.951,198.529 420.459,198.179 C420.754,197.978 422.955,196.476 425.439,194.781 C427.189,196.568 429.072,198.203 431.072,199.732 C429.783,201.447 428.766,202.802 428.564,203.072 C428.158,203.617 428.086,204.232 428.338,204.794 C428.805,205.849 429.869,207.146 431.428,208.318 C432.678,209.255 434.432,210.058 435.641,210.298 C436.369,210.447 437.453,210.519 437.822,210.027 C438.016,209.771 439.316,208.039 440.883,205.953 C443.117,207.007 445.623,207.925 448.355,208.687 C447.889,211.123 447.502,213.13 447.434,213.498 C447.307,214.166 447.512,214.746 447.984,215.142 C448.869,215.886 450.357,216.58 452.269,216.947 C453.807,217.242 455.697,217.187 456.891,216.873 C457.611,216.685 458.615,216.275 458.732,215.669 C458.791,215.363 459.189,213.3 459.67,210.796 C462.584,211.109 465.639,211.287 468.82,211.308 C468.883,213.845 468.935,215.957 468.945,216.335 C468.963,217.019 469.289,217.541 469.834,217.83 C470.855,218.367 472.42,218.728 474.367,218.681 C475.934,218.644 477.732,218.185 478.832,217.628 C479.494,217.291 480.391,216.677 480.375,216.062 C480.365,215.734 480.312,213.46 480.246,210.759 C482.568,210.527 484.928,210.224 487.322,209.839 C487.711,212.314 488.031,214.363 488.09,214.734 C488.195,215.408 488.586,215.884 489.164,216.099 C490.246,216.498 491.81,216.658 493.734,216.359 C495.281,216.119 496.969,215.437 497.988,214.74 C498.6,214.322 499.41,213.595 499.314,212.986 C499.262,212.652 498.893,210.281 498.461,207.509 C500.617,206.957 502.787,206.343 504.967,205.662 C505.855,208.074 506.598,210.087 506.73,210.447 C506.967,211.085 507.443,211.476 508.051,211.572 C509.191,211.753 510.721,211.617 512.551,210.945 C514.019,210.404 515.506,209.417 516.367,208.535 C516.887,208.001 517.537,207.13 517.324,206.554 C517.213,206.255 516.477,204.251 515.588,201.83 C516.35,201.519 517.111,201.207 517.875,200.876 C519.191,200.308 520.461,199.744 521.711,199.179 C522.654,201.326 523.416,203.062 523.56,203.39 C523.836,204.013 524.336,204.373 524.949,204.431 C526.098,204.544 527.584,204.328 529.369,203.546 C530.803,202.919 532.193,201.857 532.996,200.921 C533.482,200.359 534.08,199.451 533.832,198.888 C533.705,198.601 532.863,196.679 531.84,194.345 C533.646,193.435 535.389,192.525 537.086,191.621 C538.295,193.832 539.299,195.666 539.482,195.996 C539.81,196.593 540.338,196.91 540.955,196.914 C542.109,196.925 543.539,196.599 545.248,195.667 C546.621,194.914 547.881,193.755 548.603,192.755 C549.039,192.152 549.555,191.197 549.258,190.654 C549.105,190.376 548.07,188.48 546.822,186.195 C548.676,185.125 550.508,184.052 552.334,182.976 C553.469,185.228 554.412,187.093 554.582,187.431 C554.891,188.041 555.408,188.373 556.023,188.398 C557.176,188.449 558.584,188.187 560.324,187.31 C561.723,186.607 562.988,185.505 563.742,184.531 C564.197,183.941 564.744,183 564.467,182.453 C564.31,182.144 563.191,179.921 561.896,177.351 C563.424,176.46 564.98,175.564 566.572,174.664 C567.74,176.734 568.691,178.416 568.871,178.73 C569.207,179.324 569.74,179.632 570.355,179.628 C571.51,179.625 572.871,179.314 574.568,178.359 C575.932,177.591 577.113,176.449 577.82,175.441 C578.248,174.832 578.75,173.867 578.447,173.332 C578.301,173.072 577.377,171.433 576.221,169.384 C578.006,168.447 579.855,167.5 581.775,166.541 C583.016,168.576 584.023,170.228 584.213,170.537 C584.57,171.119 585.113,171.41 585.727,171.386 C586.881,171.345 588.201,171.007 589.863,169.996 C591.201,169.181 592.313,168.021 592.986,166.988 C593.393,166.365 593.863,165.382 593.541,164.857 C593.408,164.64 592.666,163.421 591.684,161.812 C593.096,161.167 594.545,160.517 596.039,159.863 C596.91,161.757 597.592,163.24 597.73,163.537 C598.018,164.158 598.523,164.509 599.135,164.556 C600.287,164.65 601.603,164.482 603.373,163.671 C604.795,163.015 606,162.007 606.789,161.06 C607.266,160.488 607.848,159.568 607.59,159.011 C607.486,158.787 606.924,157.566 606.174,155.933 C607.789,155.433 609.379,155.005 610.939,154.652 C611.168,156.796 611.352,158.494 611.389,158.83 C611.465,159.507 611.832,160 612.396,160.242 C613.459,160.697 614.723,160.962 616.66,160.757 C618.217,160.589 619.643,160.021 620.691,159.376 C621.328,158.984 622.172,158.298 622.103,157.687 C622.072,157.396 621.877,155.572 621.633,153.283 C623.543,153.236 625.398,153.3 627.203,153.464 C626.951,155.361 626.76,156.82 626.719,157.128 C626.633,157.806 626.873,158.373 627.365,158.74 C628.291,159.433 629.418,159.984 631.348,160.244 C632.902,160.447 634.385,160.226 635.557,159.847 C636.268,159.615 637.25,159.148 637.328,158.539 C637.357,158.318 637.502,157.218 637.703,155.703 C639.094,156.185 640.438,156.728 641.736,157.33 C640.912,158.667 640.299,159.658 640.158,159.89 C639.801,160.472 639.789,161.087 640.088,161.625 C640.646,162.634 641.422,163.58 643.076,164.605 C644.408,165.427 645.822,165.814 647.047,165.947 C647.789,166.027 648.877,166.003 649.199,165.478 C649.318,165.285 649.928,164.296 650.764,162.947 C652.049,163.984 653.264,165.084 654.404,166.232 C653.123,167.167 652.172,167.863 651.951,168.025 C651.4,168.431 651.158,168.998 651.23,169.605 C651.369,170.753 651.707,171.892 652.853,173.464 C653.775,174.73 654.918,175.591 656,176.177 C656.656,176.533 657.676,176.921 658.17,176.556 C658.371,176.41 659.469,175.607 660.932,174.539 C661.975,176.242 662.885,177.986 663.662,179.748 C662.144,180.259 660.984,180.65 660.705,180.744 C660.055,180.96 659.652,181.425 659.535,182.027 C659.314,183.16 659.277,184.314 659.887,186.162 C660.379,187.648 661.191,188.785 662.041,189.673 C662.559,190.212 663.408,190.892 663.992,190.697 C664.213,190.623 665.23,190.271 666.6,189.798 C666.898,191.878 666.994,193.917 666.875,195.871 C665.748,195.685 664.865,195.539 664.588,195.488 C663.914,195.367 663.336,195.58 662.945,196.05 C662.203,196.941 661.623,197.896 661.268,199.808 C660.982,201.351 661.156,202.697 661.473,203.886 C661.666,204.609 662.086,205.615 662.691,205.724 C662.91,205.763 663.676,205.951 664.693,206.207 C664.051,207.974 663.283,209.699 662.394,211.375 C661.644,211.05 661.08,210.792 660.887,210.669 C660.305,210.308 659.691,210.294 659.152,210.584 C658.133,211.136 657.26,211.777 656.221,213.423 C655.387,214.748 655.064,216.033 654.92,217.255 C654.834,217.998 654.848,219.087 655.371,219.414 C655.51,219.5 655.838,219.767 656.281,220.144 C654.881,221.73 653.371,223.242 651.76,224.658 C651.31,224.136 650.969,223.728 650.84,223.546 C650.445,222.988 649.885,222.736 649.273,222.796 C648.125,222.91 647.1,223.142 645.504,224.255 C644.223,225.154 643.457,226.195 642.852,227.265 C642.484,227.916 642.074,228.927 642.43,229.429 C642.545,229.595 642.93,230.048 643.439,230.636 C641.803,231.591 640.113,232.464 638.375,233.25 C638.096,232.443 637.877,231.802 637.793,231.542 C637.582,230.89 637.123,230.484 636.523,230.361 C635.391,230.125 634.377,230.029 632.523,230.617 C631.029,231.089 630.027,231.847 629.129,232.687 C628.584,233.197 627.891,234.039 628.08,234.625 C628.154,234.863 628.41,235.607 628.732,236.537 C628.41,236.613 628.09,236.695 627.768,236.765 C625.938,237.162 624.004,237.375 622.018,237.445 C622.07,236.503 622.121,235.734 622.15,235.441 C622.221,234.759 621.961,234.201 621.461,233.847 C620.519,233.175 619.666,232.685 617.732,232.478 C616.174,232.31 614.988,232.601 613.828,233.011 C613.121,233.261 612.15,233.755 612.09,234.367 C612.063,234.626 611.992,235.472 611.908,236.525 C609.498,236.015 607.09,235.308 604.74,234.398 C604.9,234.154 605.031,233.949 605.107,233.816 C605.447,233.222 605.438,232.607 605.127,232.08 C604.537,231.084 603.988,230.308 602.303,229.334 C600.949,228.55 599.777,228.353 598.551,228.257 C597.805,228.197 596.717,228.253 596.412,228.789 C596.316,228.953 596.105,229.32 595.84,229.781 C593.9,228.474 592.09,227 590.422,225.384 C590.814,225.058 591.152,224.773 591.355,224.595 C591.867,224.142 592.057,223.558 591.934,222.96 C591.701,221.828 591.457,220.943 590.182,219.474 C589.152,218.292 588.131,217.757 587.004,217.267 C586.318,216.968 585.271,216.666 584.809,217.074 C584.58,217.275 584.225,217.593 583.861,217.923 C582.646,216.332 581.531,214.73 580.545,213.134 C580.908,213.001 581.24,212.884 581.478,212.796 C582.121,212.56 582.512,212.082 582.607,211.48 C582.805,210.339 582.904,209.46 582.242,207.63 C581.711,206.158 580.965,205.322 580.09,204.459 C579.557,203.933 578.688,203.273 578.111,203.488 C577.705,203.636 577.004,203.941 576.4,204.21 C576.144,203.335 575.939,202.47 575.791,201.619 C574.58,194.593 573.314,196.421 573.314,196.421 C573.314,196.421 571.736,218.001 592.865,234.537 C615.637,252.357 646.322,246.169 665.875,225.378 C685.428,204.589 681.928,179.613 668.59,161.275 L668.59,161.275 Z" id="Fill-15" fill="#FFFFFF" sketch:type="MSShapeGroup" mask="url(#mask-4)"></path>
            </g>
        </g>
    </g>
</svg>